<?xml version="1.0" encoding="UTF-8" standalone="no"?>
<svg
   viewBox="0 0 107.3422 78.080509"
   version="1.1"
   id="svg20"
   sodipodi:docname="l7e6p0f_O1Sh.svg"
   width="107.34219"
   height="78.080505"
   inkscape:version="1.1 (c68e22c387, 2021-05-23)"
   xmlns:inkscape="http://www.inkscape.org/namespaces/inkscape"
   xmlns:sodipodi="http://sodipodi.sourceforge.net/DTD/sodipodi-0.dtd"
   xmlns="http://www.w3.org/2000/svg"
   xmlns:svg="http://www.w3.org/2000/svg">
  <sodipodi:namedview
     id="namedview22"
     pagecolor="#505050"
     bordercolor="#eeeeee"
     borderopacity="1"
     inkscape:pageshadow="0"
     inkscape:pageopacity="0"
     inkscape:pagecheckerboard="0"
     showgrid="false"
     inkscape:zoom="5.3781403"
     inkscape:cx="53.736047"
     inkscape:cy="34.305539"
     inkscape:window-width="1920"
     inkscape:window-height="1027"
     inkscape:window-x="-8"
     inkscape:window-y="-8"
     inkscape:window-maximized="1"
     inkscape:current-layer="_1" />
  <defs
     id="defs4">
    <style
       id="style2">.cls-1,.cls-2{fill:#a5cbe7;}.cls-1{stroke:#3991c8;stroke-miterlimit:22.93;stroke-width:2.4px;}.cls-2{stroke:#d4e7f5;stroke-linecap:round;stroke-linejoin:round;stroke-width:1.2px;fill-rule:evenodd;}</style>
  </defs>
  <title
     id="title6">7e6p0f_O1Sh</title>
  <g
     id="Слой_2"
     data-name="Слой 2"
     transform="translate(-21.000088,-40.497967)">
    <g
       id="_1"
       data-name="1">
      <rect
         class="cls-1"
         x="1.2"
         y="1.2"
         width="147.28"
         height="147.28"
         rx="14.17"
         id="rect8"
         style="display:none" />
      <path
         class="cls-2"
         d="m 125,76 c 1.6,2 3,7.1 2.7,9.94 -0.44,3.76 -5,5 -8.1,5.56 a 111.64,111.64 0 0 1 -13.18,1.33 c -3.61,0.25 -7.45,0.46 -11.05,1.07 -1.3,2.65 -1.92,6.41 -2.54,9.12 -0.26,1.12 -0.54,2.25 -0.87,3.35 -1.91,6.48 -5.37,11 -12.59,11.55 a 13.41,13.41 0 0 1 -9.06,-2.45 20.77,20.77 0 0 1 -5.82,-7.16 c -0.51,-1 -1,-1.93 -1.45,-2.92 -1.36,-2.89 -2.87,-6.77 -4.91,-9.38 a 95.76,95.76 0 0 0 -12.57,0.56 c -2.32,0.2 -4.64,0.38 -7,0.49 C 33.49,97.3 24.11,97.59 21.94,91.69 20.55,88 23.93,80.38 26,79.37 a 0.75,0.75 0 0 1 0.41,-0.08 c -2,1.65 -3.07,3.43 -2.33,5.44 1.34,3.62 7.28,4.17 14.32,3.84 7.04,-0.33 14.91,-1.46 20.79,-1 3.09,3.37 4.81,8.79 7.31,13.43 2.63,4.88 6.16,8.85 12.66,8.39 6.5,-0.46 9,-4.8 10.51,-9.88 1.44,-4.84 1.91,-10.31 4.14,-13.91 10.79,-2.1 29.88,-1.41 31.52,-6.13 A 3.48,3.48 0 0 0 125,76 Z M 45,70 44.42,68.77 c -3.07,-6.5 -4.39,-10.94 -0.26,-17 l -0.06,0.16 c 0,0 0,0.06 0,0.1 -1.1,3.69 3.9,10.66 4.71,15.82 A 31.69,31.69 0 0 1 45,70 Z m 57,-18.76 c 2.1,2.92 3.12,8.26 2.31,11.26 -0.34,1.27 -1,2.94 -1.6,4.6 A 35.91,35.91 0 0 1 99.4,65.59 c -0.17,-3.07 1.8,-6.71 2.65,-9.88 A 6.36,6.36 0 0 0 102,51.26 Z"
         id="path10" />
      <path
         class="cls-2"
         d="m 101.76,50.91 c 0.92,1.45 0.69,3.21 0.25,4.82 -0.85,3.17 -2.82,6.81 -2.65,9.88 4.09,2.19 10.73,4 16.25,6 5.52,2 11.37,3.16 9.72,7.89 -1.65,4.73 -20.73,4 -31.52,6.13 -2.23,3.6 -2.7,9.07 -4.14,13.91 -1.5,5.08 -4,9.43 -10.51,9.88 -6.51,0.45 -10,-3.51 -12.66,-8.39 -2.53,-4.68 -4.22,-10.1 -7.27,-13.45 -5.88,-0.48 -13.82,0.65 -20.79,1 -6.97,0.35 -13,-0.22 -14.32,-3.84 -1.32,-3.62 3.08,-6.5 8.72,-9.21 5.48,-2.64 12.16,-5.07 16,-7.67 C 48,62.69 43,55.72 44.1,52 c 0,0 0,-0.07 0,-0.1 1.34,-4.29 11.14,-1.39 11.56,-1.86 1.12,0.37 2.25,0.76 3.42,1.17 4.65,1.64 9.58,4 14.22,5 4.38,-1.32 8.71,-4 12.9,-5.91 a 29.25,29.25 0 0 1 4.61,-1.74 c 4.6,-0.3 8.79,-0.91 10.95,2.35 z"
         id="path12" />
      <path
         class="cls-2"
         d="M 98.68,54.63 A 7,7 0 0 1 98.45,57.07 31.08,31.08 0 0 1 95,55.56 C 94.89,53 96.52,50 97.22,47.41 a 5,5 0 0 0 -0.29,-3.83 2.14,2.14 0 0 1 0.34,0.09 c 0,0 2.36,8 1.43,10.91 0,0 0,0 0,0.05 z M 117,64.86 a 8.94,8.94 0 0 1 0.68,2.25 c 0.5,2.78 1.38,10.32 0.92,11.1 0,0 0,0 0,0.05 -1.31,4.28 -18.13,3.22 -27.27,5 -1.93,3.11 -2.35,7.86 -3.59,12.06 -1.31,4.41 -3.48,8.18 -9.12,8.57 -5.64,0.39 -8.7,-3 -11,-7.27 -2.3,-4.27 -3.66,-8.77 -6.31,-11.68 -5.1,-0.41 -12,0.57 -18,0.86 -6,0.29 -11.31,-0.19 -12.49,-3.34 a 2.71,2.71 0 0 1 -0.13,-0.44 0.09,0.09 0 0 1 0,-0.06 1.53,1.53 0 0 1 0,-0.35 3.09,3.09 0 0 1 0.05,-0.86 c 0.19,-1.93 0.89,-5.57 1.46,-8.64 0.57,-3.07 1.06,-3.63 1.43,-4 a 3.17,3.17 0 0 0 -0.6,3.17 c 1.1,3 6,3.44 11.81,3.17 5.81,-0.27 12.3,-1.21 17.16,-0.81 2.51,2.77 3.91,7.24 6,11.1 2.18,4 5.09,7.3 10.45,6.92 5.36,-0.38 7.43,-4 8.67,-8.15 C 88.3,79.51 88.7,75 90.53,72.03 96.23,71 105.23,71 111,70 c 3.12,-0.55 5.56,-1.84 5.93,-3.17 a 3.56,3.56 0 0 0 0.07,-2 z m -68,-5.1 c -0.84,-1.92 -1.42,-3.7 -1.08,-5.07 a 76.11,76.11 0 0 1 1.41,-8.57 c 0.49,-2.31 1.49,-3 2,-3.27 -0.16,0.1 -0.31,0.21 -0.47,0.33 -3.24,2.46 1.6,9.1 2.41,14.23 A 32.56,32.56 0 0 1 49,59.76 Z"
         id="path14" />
      <path
         class="cls-2"
         d="m 94.26,41.56 c 3,1 3.64,3.33 3,5.85 -0.64,2.52 -2.37,5.59 -2.26,8.15 3.38,1.8 8.86,3.28 13.41,5 4.55,1.72 9.67,2 8.48,6.32 -0.37,1.33 -2.81,2.62 -5.93,3.17 -5.76,1 -14.76,0.95 -20.54,2.07 -1.83,3 -2.23,7.49 -3.41,11.48 -1.24,4.19 -3.31,7.78 -8.67,8.15 -5.36,0.37 -8.27,-2.9 -10.45,-6.92 -2.08,-3.86 -3.48,-8.33 -6,-11.1 -4.86,-0.4 -11.4,0.54 -17.16,0.81 -5.76,0.27 -10.67,-0.22 -11.73,-3.21 -1.06,-2.99 2.54,-5.36 7.2,-7.6 4.66,-2.24 10,-4.18 13.17,-6.32 -0.81,-5.13 -5.65,-11.77 -2.41,-14.23 3.24,-2.46 7.09,-0.81 10.86,0.53 3.77,1.34 7.87,3.29 11.69,4.14 3.62,-1.1 7.19,-3.3 10.65,-4.89 3.46,-1.59 7.12,-2.44 10.1,-1.4 z"
         id="path16" />
    </g>
  </g>
</svg>
